<?xml version="1.0" encoding="UTF-8"?>
<svg id="Layer_1" xmlns="http://www.w3.org/2000/svg" version="1.1" xmlns:xlink="http://www.w3.org/1999/xlink" viewBox="0 0 1000 1000">
  <!-- Generator: Adobe Illustrator 29.3.1, SVG Export Plug-In . SVG Version: 2.1.0 Build 151)  -->
  <defs>
    <style>
      .st0 {
        fill: url(#linear-gradient1);
      }

      .st1 {
        fill: url(#linear-gradient);
      }
    </style>
    <linearGradient id="linear-gradient" x1="-148.79" y1="1345.77" x2="1065.47" y2="34.8" gradientUnits="userSpaceOnUse">
      <stop offset=".43" stop-color="#eac328"/>
      <stop offset="1" stop-color="#dc9111"/>
    </linearGradient>
    <linearGradient id="linear-gradient1" x1="-224.25" y1="1275.87" x2="990" y2="-35.09" xlink:href="#linear-gradient"/>
  </defs>
  <path class="st1" d="M770.38,297.23c2.12-5.05,5.03-9.48,8.71-13.28,3.68-3.8,7.99-6.78,12.94-8.97,4.93-2.18,10.22-3.28,15.87-3.28s10.92,1.04,15.87,3.1c4.93,2.07,9.28,4.92,13.02,8.54,3.73,3.62,6.69,7.87,8.88,12.76,2.18,4.89,3.27,10.15,3.27,15.78s-1.03,10.98-3.09,16.04c-2.08,5.06-4.92,9.49-8.55,13.28-3.61,3.79-7.87,6.78-12.76,8.97-4.89,2.18-10.14,3.28-15.77,3.28s-10.98-1.03-16.04-3.1c-5.06-2.07-9.48-4.92-13.28-8.54-3.8-3.62-6.79-7.87-8.97-12.76-2.18-4.89-3.28-10.15-3.28-15.78s1.06-10.98,3.19-16.04ZM794.61,280.33c-4.26,1.84-7.96,4.34-11.12,7.5-3.16,3.16-5.66,6.87-7.5,11.13-1.84,4.25-2.76,8.8-2.76,13.62s.92,9.37,2.76,13.62,4.34,7.96,7.5,11.12c3.16,3.16,6.87,5.67,11.12,7.5,4.25,1.84,8.8,2.76,13.62,2.76s9.37-.92,13.62-2.76c4.25-1.84,7.96-4.34,11.12-7.5,3.16-3.16,5.67-6.86,7.51-11.12,1.83-4.26,2.75-8.8,2.75-13.62s-.92-9.37-2.75-13.62c-1.84-4.26-4.34-7.96-7.51-11.13-3.16-3.16-6.87-5.66-11.12-7.5-4.25-1.84-8.8-2.76-13.62-2.76s-9.37.92-13.62,2.76ZM810.3,290.67c4.49,0,8.07.92,10.78,2.76,2.7,1.84,4.06,5.17,4.06,10,0,3.57-.72,6.21-2.16,7.93s-3.36,3.05-5.77,3.97l7.93,18.11h-7.25l-6.89-17.59h-10.35v17.59h-6.37v-42.77h16.03ZM800.48,310.16h9.3c3.68,0,6.13-.52,7.33-1.55,1.22-1.04,1.82-2.87,1.82-5.52,0-4.26-2.82-6.38-8.45-6.38h-10v13.45Z"/>
  <path class="st0" d="M827.13,453.13c-12.5-23.12-43.72-86.68-72.72-86.68h-196.11l104.87-186.67h-324.05c-20.2,0-49.46,16.84-61.51,32.87L125.88,474.1c-12.95,27.36-12.95,50.97,0,78.34,49.94,79.19,91.78,165.47,141.31,244.61,20.27,32.38,38.1,46.84,78.15,49.79,88.74,6.53,185.34-5.12,274.92,0,44.9-3.31,59.04-19.98,81.03-55.3,43.82-70.39,97.29-159.33,134.23-232.81,22.87-45.49,14.08-64.04-8.39-105.59ZM418.83,660.08c-8.31,0-25.69-15.01-29.2-23.24l-154.33-270.39h308.32l-104.87,186.67h219.18c2.01,0,18.44,9.99,19.57,13.99l52.79,92.97h-311.46Z"/>
</svg>